<svg class="map__scheme" width="1522" height="836" viewBox="0 0 1522 836" fill="none" xmlns="http://www.w3.org/2000/svg">

  <g id="figure 4" class="figure figure_4">
    <rect id="Rectangle 378" x="770.127" y="343.447" width="67.7658" height="32.1047" fill="#E9E0CB" stroke="#FF121F" stroke-width="4.2342"/>
    <path id="4" d="M805.41 364.51H803.632V362.308H800.668V360.783L803.005 352.654H804.868L802.582 360.614H803.632V359.09L805.41 358.751V360.614H806.088V362.308H805.41V364.51Z" fill="#FF121F"/>
  </g>
  <g id="figure 1" class="figure figure_1">
    <rect id="Rectangle 378_2" x="614.874" y="438.353" width="87.2344" height="28.7865" fill="#E9E0CB" stroke="#FF121F" stroke-width="4.2342"/>
    <path id="1" d="M658.232 449.41V447.716H660.772V459.572H658.994V449.41H658.232Z" fill="#FF121F"/>
  </g>
  <g id="figure 3" class="figure figure_3">
    <rect id="Rectangle 378_3" x="348.117" y="473.117" width="99.7658" height="46.7658" rx="23.3829" fill="#E9E0CB" stroke="#FF121F" stroke-width="4.2342"/>
    <path id="3" d="M398.728 503.205H395.459C394.985 503.205 394.68 502.883 394.68 502.425V499.309H396.459V501.511H397.729V497.311H395.951V495.735L397.56 493.043H394.765V491.349H399.423V492.873L397.797 495.617H398.728C399.203 495.617 399.507 495.939 399.507 496.396V502.425C399.507 502.883 399.203 503.205 398.728 503.205Z" fill="#FF121F"/>
  </g>
  <g id="figure 2" class="figure figure_2">
    <path class="rect" id="Rectangle 378_4" d="M611.735 473.705V603.659H704.961V473.705H713.568V611.883H336.117V553.117H520.883V603.659H603.252V473.705H611.735Z" fill="#E9E0CB" stroke="#FF121F" stroke-width="4.2342"/>
    <path id="2" d="M429.263 576.882V579.727L426.215 585.74V586.265H429.263V587.958H424.436V585.503L427.485 579.49V577.796H426.215V579.49H424.436V576.882C424.436 576.425 424.741 576.103 425.216 576.103H428.484C428.959 576.103 429.263 576.425 429.263 576.882Z" fill="#FF121F"/>
  </g>

</svg>
