<svg width="47" height="44" viewBox="0 0 47 44" fill="none" xmlns="http://www.w3.org/2000/svg">
<path d="M12.1416 0C14.521 0 16.4502 1.92916 16.4502 4.30859C16.4502 4.44063 16.4433 4.57119 16.4316 4.7002H30.5684C30.5567 4.5712 30.5498 4.44062 30.5498 4.30859C30.5498 1.92922 32.479 8.52277e-05 34.8584 0H36.4248C38.8042 0 40.7334 1.92916 40.7334 4.30859C40.7334 4.57892 40.7068 4.84308 40.6592 5.09961C44.3317 6.23374 47 9.65528 47 13.7002V34.8672C46.9998 39.8376 42.9705 43.8672 38 43.8672H9C4.02958 43.8671 0.000183058 39.8376 0 34.8672V13.7002C0 9.65569 2.66791 6.23409 6.33984 5.09961C6.29224 4.84316 6.26661 4.57883 6.2666 4.30859C6.2666 1.92916 8.19576 0 10.5752 0H12.1416ZM15.5059 14.001C14.6659 14.001 14.126 14.5709 14.126 15.3809V20.001H17.2754V17.001H19.5254V20.001L14.126 30.6514V35.001H22.6758V32.001H17.2754V31.0713L22.6758 20.4209V15.3809C22.6757 14.5711 22.1356 14.0012 21.2959 14.001H15.5059ZM25.7041 14.001C24.8643 14.0011 24.3243 14.571 24.3242 15.3809V21.2607C24.3242 22.4606 24.8944 23.2705 25.8242 23.6006C24.8942 23.9306 24.3242 24.7114 24.3242 25.9414V33.6211C24.3243 34.431 24.8643 35.0009 25.7041 35.001H31.4941C32.3341 35.001 32.874 34.4311 32.874 33.6211V25.9414C32.874 24.7115 32.3046 23.9306 31.3447 23.6006C32.3044 23.2705 32.874 22.4605 32.874 21.2607V15.3809C32.874 14.5709 32.3341 14.001 31.4941 14.001H25.7041ZM29.7246 32.001H27.4746V25.1006H29.7246V32.001ZM29.7246 22.1006H27.4746V17.001H29.7246V22.1006Z" fill="#FF121F"/>
</svg>
