<svg width="79" height="24" viewBox="0 0 79 24" fill="none" xmlns="http://www.w3.org/2000/svg">
<path fill-rule="evenodd" clip-rule="evenodd" d="M42.8733 12.0749H41.3873V2.32668H42.8733V6.14784H43.1195C43.9262 6.14784 44.1895 5.2732 44.1895 4.61936V2.32668H45.6755V4.55994C45.6755 5.58741 45.2933 6.35163 44.5546 6.86112C45.3528 7.42155 45.6755 8.13483 45.6755 9.1623V12.0834H44.1895V9.09437C44.1895 8.46601 43.8923 7.70176 43.1365 7.70176H42.8733V12.0749ZM68.1693 12.0749V2.32668H69.494V8.02444L71.0225 2.32668H72.6868V12.0749H71.3451V5.29019L69.5195 12.0834H68.1693V12.0749ZM73.7397 12.0664V2.31818H75.0644V8.01594L76.5929 2.31818H78.2572V12.0664H76.9155V5.28172L75.0899 12.0749H73.7397V12.0664ZM77.6373 3.05176e-05V1.13788H74.3596V3.05176e-05H77.6373ZM64.3737 12.0579H62.8877V2.30971H64.3737V6.13086H64.6199C65.4266 6.13086 65.6898 5.25623 65.6898 4.60239V2.30971H67.1758V4.54294C67.1758 5.57041 66.7937 6.33466 66.055 6.84414C66.8532 7.40458 67.1758 8.11786 67.1758 9.14532V12.0664H65.6898V9.07738C65.6898 8.44901 65.3926 7.68479 64.6369 7.68479H64.3737V12.0579ZM37.3963 12.0409H35.9103V2.29271H40.3343V6.20728H38.8144V3.68532H37.3963V10.6483H38.8144V8.12634H40.3343V12.0409H37.4048H37.3963ZM58.8967 12.0409H57.4107V2.29271H61.8347V6.20728H60.3147V3.68532H58.8967V10.6483H60.3147V8.12634H61.8347V12.0409H58.9052H58.8967ZM33.3374 3.68532H31.9448V10.6483H33.3374V3.68532ZM31.9193 12.0409H30.4333V2.29271H34.8573V12.0409H31.9278H31.9193ZM49.641 3.68532H48.2484V10.6483H49.641V3.68532ZM48.2229 12.0409H46.7369V2.29271H51.1609V12.0409H48.2314H48.2229ZM53.6999 3.68532V6.30068C54.2518 6.33464 54.9311 6.30069 54.9311 5.30719V4.42407V3.69379H53.7084L53.6999 3.68532ZM53.6999 7.69329V10.6483H54.9227C54.9227 10.0199 54.9227 9.38309 54.9227 8.75472C54.9227 7.76122 54.2518 7.66782 53.6914 7.69329H53.6999ZM56.4172 4.008V5.20527C56.4172 5.98649 56.0945 6.54693 55.585 6.91206C56.1284 7.34513 56.4172 8.01595 56.4172 8.84812V12.0409C55.5086 12.0409 54.6085 12.0409 53.6999 12.0409H52.2139V2.29271H53.6999C54.6085 2.29271 55.5086 2.29271 56.4172 2.29271V4.008ZM26.23 8.82264C26.6206 6.74223 27.1301 4.4071 27.3594 2.30971H29.3634V12.0579H28.0642V8.20276L28.217 4.72128C28.0302 5.84215 27.2999 9.96899 26.3659 11.956H26.23H26.0942C25.1601 9.96899 24.4298 5.84215 24.243 4.72128L24.3959 8.20276V12.0579H23.0967V2.30971H25.1007C25.3384 4.4071 25.8394 6.73374 26.23 8.82264Z" fill="#FF121F"/>
<path fill-rule="evenodd" clip-rule="evenodd" d="M40.9624 14.996V19.3352C41.5144 19.3691 42.1937 19.2672 42.1937 18.2737V17.3906V14.996H40.9709H40.9624ZM43.6797 16.9915V18.1888C43.6797 19.6918 42.907 20.7362 41.4549 20.7362H40.9624V23.3601H39.4764V13.6119C40.8775 13.6119 42.2786 13.6119 43.6882 13.6119V17L43.6797 16.9915ZM44.0873 13.6034H48.6896V14.996H47.1357V23.3516H45.6497V14.996H44.0958V13.6034H44.0873ZM36.9375 14.996H35.5449V21.959H36.9375V14.996ZM35.5194 23.3516H34.0334V13.6034H38.4574V23.3516H35.5279H35.5194ZM24.5739 23.3516H23.0879V13.6034H27.5119V17.518H25.992V14.996H24.5739V21.959H25.992V19.4371H27.5119V23.3516H24.5824H24.5739ZM30.0424 23.3516H28.5564V13.6034H32.9804V23.3516H31.4605V14.996H30.0424V23.3516Z" fill="#FF121F"/>
<path fill-rule="evenodd" clip-rule="evenodd" d="M10.0879 18.2821C10.453 18.7322 10.8521 19.1567 11.2767 19.5558C13.2467 21.4324 15.7772 22.7826 18.6048 23.3515V21.6702C16.2612 21.1267 14.1638 19.9719 12.4995 18.401C11.956 17.883 11.455 17.3226 11.0135 16.7197L10.0879 18.2906V18.2821Z" fill="#FF121F"/>
<path fill-rule="evenodd" clip-rule="evenodd" d="M3.9746 16.5327C5.82574 14.775 6.97208 12.3549 6.97208 9.68859V2.30954H8.69585V9.68859C8.69585 10.9878 8.91663 12.5078 9.30723 13.6881C9.70633 12.5078 9.91862 10.9878 9.91862 9.68859V2.30954H11.6424V9.68859C11.6424 12.3549 12.7887 14.775 14.6399 16.5327C15.7438 17.5772 17.0939 18.3923 18.5969 18.8764V20.6001C16.6099 20.0652 14.8352 19.0547 13.4171 17.6961C12.3472 16.6771 11.4811 15.4713 10.8782 14.1381C10.4281 15.293 9.92711 16.3968 9.30723 17.229C8.68736 16.3968 8.18636 15.293 7.73631 14.1381C7.13342 15.4713 6.26729 16.6856 5.19737 17.6961C3.7793 19.0462 1.99609 20.0652 0.0175781 20.6001V18.8764C1.52057 18.3923 2.87071 17.5857 3.9746 16.5327Z" fill="#FF121F"/>
<path fill-rule="evenodd" clip-rule="evenodd" d="M14.4103 9.5359C14.4103 11.4804 15.2425 13.2382 16.5926 14.5204C17.1785 15.0723 17.8578 15.5394 18.6051 15.8875V17.6792C17.3823 17.2376 16.2869 16.5499 15.3783 15.6837C13.7225 14.1043 12.6865 11.9305 12.6865 9.5359V7.87158H14.4103V9.5359Z" fill="#FF121F"/>
<path fill-rule="evenodd" clip-rule="evenodd" d="M4.20357 7.87158H5.92734V9.5359C5.92734 11.9305 4.89987 14.1043 3.23555 15.6837C2.32696 16.5499 1.22307 17.2376 0.00878906 17.6792V15.8875C0.756037 15.5394 1.43535 15.0808 2.02126 14.5204C3.3714 13.2382 4.20357 11.472 4.20357 9.5359V7.87158Z" fill="#FF121F"/>
<path fill-rule="evenodd" clip-rule="evenodd" d="M7.59136 16.7111C7.14981 17.314 6.6573 17.8744 6.10536 18.3924C4.44953 19.9718 2.34364 21.1182 0 21.6616V23.3429C2.81916 22.774 5.34963 21.4239 7.31964 19.5472C7.74422 19.1482 8.13482 18.7236 8.50844 18.2735L7.58288 16.7026L7.59136 16.7111Z" fill="#FF121F"/>
</svg>
