<svg width="57" height="28" viewBox="0 0 57 28" fill="none" xmlns="http://www.w3.org/2000/svg">
<path d="M28.694 3.74743H30.9298V7.76641H31.7354V3.02328H27.8975V7.76641H28.7031V3.74743H28.694Z" fill="#FF121F"/>
<path d="M38.6144 7.84758C39.9541 7.84758 40.8412 6.83378 40.8412 5.39455C40.8412 3.95533 39.9541 2.94153 38.6144 2.94153C37.2748 2.94153 36.3877 3.95533 36.3877 5.39455C36.3877 6.83378 37.2748 7.84758 38.6144 7.84758ZM38.6144 3.68377C39.4924 3.68377 40.0174 4.39886 40.0174 5.40361C40.0174 6.40835 39.4834 7.12344 38.6144 7.12344C37.7455 7.12344 37.2205 6.40835 37.2205 5.40361C37.2205 4.39886 37.7364 3.68377 38.6144 3.68377Z" fill="#FF121F"/>
<path d="M30.4051 20.158L28.8844 16.483H27.8887V21.2261H28.6581V17.7955L30.0701 21.217H30.7128L32.1158 17.7955V21.2261H32.8762V16.483H31.8986L30.387 20.158H30.4051Z" fill="#FF121F"/>
<path d="M46.1093 5.5851L48.0192 7.76658H49.033L46.9149 5.28639L48.9878 3.0144H48.0102L46.1093 5.06915V3.0144H45.3037V7.75752H46.1093V5.57605V5.5851Z" fill="#FF121F"/>
<path d="M44.5984 7.04227H42.3083V5.6845H44.4626V4.98752H42.3083V3.74743H44.5984V3.02328H41.5117V7.76641H44.5984V7.04227Z" fill="#FF121F"/>
<path d="M39.1848 12.8624H40.1262C41.1309 12.8624 41.7374 12.1654 41.7374 11.3055C41.7374 10.4456 41.149 9.74857 40.099 9.74857H38.3701V14.4917H39.1757V12.8533L39.1848 12.8624ZM39.1848 10.4637H40.0266C40.615 10.4637 40.9318 10.8076 40.9318 11.3055C40.9318 11.8033 40.6059 12.1563 40.0266 12.1563H39.1848V10.4546V10.4637Z" fill="#FF121F"/>
<path d="M52.9069 3.02328H49.1143V3.74743H50.6078V7.76641H51.4134V3.74743H52.9069V3.02328Z" fill="#FF121F"/>
<path d="M50.0746 18.7552C50.3733 18.6285 50.6991 18.2936 50.6991 17.7324C50.6991 17.0444 50.2013 16.5013 49.2328 16.5013H47.4043V21.2445H49.2961C50.2737 21.2445 50.8802 20.6833 50.8802 19.8958C50.8802 19.1988 50.4185 18.8548 50.0746 18.7552ZM48.2009 17.1802H49.1151C49.5948 17.1802 49.8845 17.4246 49.8845 17.8229C49.8845 18.185 49.6491 18.4656 49.1513 18.4656H48.2009V17.1712V17.1802ZM49.2056 20.5475H48.2009V19.1354H49.2328C49.7397 19.1354 50.0655 19.407 50.0655 19.8414C50.0655 20.3031 49.7125 20.5475 49.2056 20.5475Z" fill="#FF121F"/>
<path d="M46.9421 16.4829H45.9646L44.0546 18.5376V16.4829H43.249V21.226H44.0546V19.0445L45.9646 21.226H46.9783L44.8512 18.7458L46.9331 16.4738L46.9421 16.4829Z" fill="#FF121F"/>
<path d="M56.1386 16.483H55.333V21.2261H56.1386V16.483Z" fill="#FF121F"/>
<path d="M30.4051 13.4331L28.8844 9.75806H27.8887V14.5012H28.6581V11.0706L30.0701 14.4921H30.7128L32.1158 11.0706V14.5012H32.8762V9.75806H31.8986L30.387 13.4331H30.4051Z" fill="#FF121F"/>
<path d="M45.1322 14.5012H45.974L44.2089 9.75806H43.3762L41.6201 14.5012H42.4619L42.8602 13.3788H44.7339L45.1413 14.5012H45.1322ZM43.0956 12.6818L43.7835 10.7175L44.4714 12.6818H43.0865H43.0956Z" fill="#FF121F"/>
<path d="M53.2247 18.1666H52.3105V16.483H51.5049V21.2261H53.2428C54.2385 21.2261 54.854 20.5472 54.854 19.6873C54.854 18.8274 54.2566 18.1575 53.2247 18.1575V18.1666ZM53.1432 20.5201H52.3105V18.8726H53.1432C53.7135 18.8726 54.0394 19.1894 54.0394 19.6963C54.0394 20.2032 53.7045 20.5291 53.1432 20.5291V20.5201Z" fill="#FF121F"/>
<path d="M35.9903 4.57131C35.9903 3.71139 35.4019 3.0144 34.3519 3.0144H32.623V7.75753H33.4287V6.11916H34.37C35.3838 6.11916 35.9903 5.42217 35.9903 4.56225V4.57131ZM33.4287 5.42217V3.72044H34.2705C34.8588 3.72044 35.1756 4.06441 35.1756 4.56225C35.1756 5.0601 34.8498 5.41312 34.2705 5.41312H33.4287V5.42217Z" fill="#FF121F"/>
<path d="M40.6243 20.5748C39.7915 20.5748 39.2665 19.8597 39.2665 18.855C39.2665 17.8502 39.8006 17.1351 40.6243 17.1351C41.3122 17.1351 41.6834 17.5515 41.8191 18.0313H42.6247C42.489 17.1442 41.8101 16.4019 40.6334 16.4019C39.348 16.4019 38.4609 17.4157 38.4609 18.855C38.4609 20.2942 39.3752 21.308 40.6334 21.308C41.8916 21.308 42.5614 20.4028 42.6428 19.6696H41.8282C41.7558 20.077 41.3666 20.5748 40.6243 20.5748Z" fill="#FF121F"/>
<path d="M35.5368 13.8491C34.7855 13.8491 34.4325 13.3603 34.3329 13.0164H33.5273C33.6269 13.6771 34.2153 14.5823 35.5278 14.5823C36.7679 14.5823 37.7093 13.6681 37.7093 12.1293C37.7093 10.5905 36.8041 9.67627 35.5368 9.67627C34.3692 9.67627 33.6903 10.4276 33.5454 11.2422H34.342C34.4778 10.8077 34.8489 10.4095 35.5459 10.4095C36.2429 10.4095 36.7679 10.8802 36.8855 11.7491H35.0028V12.4371H36.8946C36.8131 13.3241 36.2972 13.8582 35.5459 13.8582L35.5368 13.8491Z" fill="#FF121F"/>
<path d="M35.7814 16.4106C34.4418 16.4106 33.5547 17.4244 33.5547 18.8637C33.5547 20.3029 34.4418 21.3167 35.7814 21.3167C37.1211 21.3167 38.0082 20.3029 38.0082 18.8637C38.0082 17.4244 37.1211 16.4106 35.7814 16.4106ZM35.7814 20.5745C34.9034 20.5745 34.3875 19.8594 34.3875 18.8546C34.3875 17.8499 34.9125 17.1348 35.7814 17.1348C36.6504 17.1348 37.1844 17.8499 37.1844 18.8546C37.1844 19.8594 36.6594 20.5745 35.7814 20.5745Z" fill="#FF121F"/>
<path d="M1.57247 18.1946L2.17894 17.9955C2.06126 17.6425 2.23325 17.3438 2.45954 17.2352C2.55006 17.1899 2.64058 17.1537 2.74015 17.1265C3.28325 16.9274 4.01644 16.6649 4.37851 15.2438C4.5686 14.4834 4.86731 14.1304 5.19317 13.9765C5.01214 14.6373 5.0936 15.2709 5.15696 15.805C5.20222 16.158 5.24748 16.4929 5.20222 16.7554C5.12981 17.1537 4.84015 17.4977 4.3242 17.8145L4.21558 17.8869L4.17937 18.0136C4.17937 18.0136 3.67248 19.833 3.40092 20.7744L3.37377 20.8649L3.40092 20.9554C3.42808 21.0641 3.46429 21.1727 3.49144 21.2722C3.62722 21.7701 3.74489 22.1684 3.74489 22.8472H4.43282C4.43282 22.0688 4.3061 21.6162 4.15222 21.0912C4.13412 21.0188 4.10696 20.9464 4.08886 20.874C4.20653 20.4576 4.36946 19.8964 4.50524 19.3985C4.71343 19.3442 4.90352 19.299 5.0755 19.2537C5.98973 19.0274 6.45137 18.9097 7.35654 18.4209C8.07163 18.0227 8.60569 17.3438 8.83198 17.0179C9.4294 17.0722 11.1221 17.1808 12.2988 16.9546C13.4031 16.7464 14.0548 16.4839 14.3717 16.3209L15.5303 17.8959L15.4398 17.9593L15.0324 18.2671L15.2587 18.5477C15.2587 18.5477 15.7928 19.1994 16.0643 19.5615C16.1186 19.6429 16.3721 20.0231 16.001 20.4123C15.6661 20.7653 14.9691 20.8378 14.5708 20.5481C14.4169 20.4395 14.3173 20.2856 14.2902 20.1046C14.263 19.9326 14.3083 19.7425 14.3988 19.6158C14.7518 19.1541 14.8333 18.611 14.6161 18.1765C14.435 17.8145 14.082 17.5972 13.6566 17.5972C13.4031 17.5972 13.1044 17.5972 12.7514 17.5972C11.8643 17.5972 10.751 17.6244 9.63759 17.5972L9.01301 17.5791L9.32077 18.1132C9.32077 18.1132 9.53802 18.4752 9.74621 18.8916C9.19405 18.7559 8.38844 18.6744 7.4199 18.9188C6.3699 19.1903 5.27464 20.0593 5.17507 21.399C5.12981 21.9602 5.29274 22.4671 5.6186 22.8382C5.89921 23.1641 6.28843 23.3451 6.74102 23.3813H6.84059C7.33844 23.3813 7.80008 23.1641 8.08068 22.7839C8.36129 22.4218 8.4337 21.9692 8.29793 21.5528C8.24361 21.408 8.1893 21.2813 8.10784 21.1727C8.56948 21.1003 8.85913 21.2813 8.94965 21.4623C9.16689 21.8697 8.75051 22.286 8.73241 22.2951L8.53327 22.4852L9.42939 23.9878H12.0906V23.2998H11.1854C11.113 23.2274 11.0135 23.1188 10.932 22.9559C10.8686 22.8382 10.6966 22.4309 10.9682 22.2317C11.1492 22.096 11.3212 22.096 11.7195 22.2498C11.9729 22.3403 12.1811 22.458 12.4165 22.5757C13.0048 22.8744 13.6113 23.2003 14.7247 23.2184L15.0324 23.9878H17.8023V23.2998H16.6346L16.5531 23.0011C17.1143 22.802 17.6031 22.4942 17.9652 22.0869C18.5536 21.4352 18.8161 20.5481 18.7437 19.5524C18.8342 19.4528 19.0062 19.2809 19.1419 19.1451L19.4859 18.8102L18.6712 18.4028C17.9833 18.0679 17.6484 17.7602 17.3497 16.7373L17.1596 16.0222L16.5079 16.2576C16.1186 16.3933 15.8561 16.7373 15.7928 17.1265L15.0324 16.0946C15.6208 16.0946 16.2001 15.8593 16.4626 15.7054C17.5941 15.0446 18.1824 14.7007 18.4721 14.5287C18.9337 15.0808 19.7122 16.1037 19.8661 16.5834C19.9385 16.8007 19.9566 17.5972 19.9385 18.1132L20.6264 18.1313C20.6264 17.905 20.6536 16.7826 20.5269 16.3752C20.2644 15.5968 18.9609 14.0489 18.807 13.877L18.6531 13.6869L18.635 13.6416C18.1462 13.8951 17.6212 13.9584 17.232 13.9584C17.4312 13.6869 17.5941 13.3429 17.6846 12.9084L19.3592 12.0032C19.7575 12.4558 20.4182 13.2524 20.5721 13.6688C20.6626 13.9041 20.7079 14.755 20.726 15.289L21.4139 15.2709C21.4139 15.0356 21.3687 13.8588 21.2238 13.4334C20.9613 12.7274 19.8208 11.4782 19.685 11.3244L19.504 11.1252L17.7208 12.0938C17.6031 11.2157 17.0148 10.4916 16.5622 9.93038C16.4626 9.80366 16.363 9.67694 16.2816 9.57737C16.1368 9.36918 15.9648 9.07952 15.8109 8.79891C16.0191 8.82607 16.2544 8.81702 16.5169 8.74461C16.6889 8.78081 17.1777 8.9528 17.5669 9.11573L17.7751 9.20624L18.1372 8.86228C18.5898 8.42779 18.5988 7.70365 18.1643 7.26012L16.8337 5.90235V5.39545L16.6436 5.30494C16.5531 5.25968 15.8199 4.90666 15.3945 4.8433C14.788 4.72562 13.7561 4.70752 12.9143 5.58554L12.0635 5.34114C12.1178 5.04243 12.1449 4.8795 12.154 4.69847L12.1721 4.55364C12.3169 3.55795 11.7285 2.87001 11.2941 2.5351C11.4208 2.21829 11.4751 1.74759 11.104 1.37647C10.7962 1.06871 10.416 0.996299 9.85483 1.15018C9.52896 1.2407 9.23931 1.45794 8.9406 1.68423C8.82293 1.77475 8.68715 1.87432 8.56043 1.96484C7.87249 2.43553 7.29318 1.99199 7.00352 1.68423L6.50568 2.16398C6.94016 2.62562 7.44706 2.87001 7.94491 2.87001C8.28887 2.87001 8.62379 2.76139 8.9587 2.54415C9.10353 2.44458 9.23931 2.33596 9.36603 2.24544C9.62853 2.0463 9.83672 1.88337 10.0359 1.82906C10.4522 1.72044 10.5518 1.81096 10.6242 1.88337C10.8143 2.07346 10.6242 2.37217 10.5971 2.39932C10.226 2.54415 9.26646 2.95148 9.13974 4.092C9.10353 4.3545 9.08543 4.65321 9.06732 4.8795C8.62379 4.8795 7.86344 4.94287 7.17551 5.39545L4.59576 1.86527L4.03455 2.2726L5.24748 3.93812C5.12076 4.11916 4.74964 4.71657 4.96688 5.18726C5.11171 5.49502 5.56429 6.42735 5.76343 6.84373C5.36516 7.32348 4.26989 8.75366 3.69058 10.383L3.50955 10.8899L4.0436 10.8356C4.84921 10.7541 5.22033 10.9351 5.60955 11.1252C5.77248 11.2067 5.93542 11.2791 6.13455 11.3425C6.8587 11.5778 7.37465 11.4873 7.82723 11.4149C7.8906 11.5235 7.95396 11.6412 8.02637 11.7407C7.88154 11.7407 7.72766 11.7588 7.56473 11.795H7.51042C7.16646 11.8765 6.83154 11.9489 6.48757 12.1481C6.22507 11.8765 5.73628 11.5235 4.95783 11.5235C3.75394 11.5235 2.87592 12.2838 2.55006 13.6235C2.2604 14.8274 1.96169 15.1804 1.7173 15.452C1.60868 15.5787 1.48195 15.7235 1.40049 15.9136C1.03841 16.7011 1.12893 17.3257 1.44574 18.2037H1.52721L1.57247 18.1946ZM15.9195 23.2817H15.4941L15.4579 23.1912C15.6027 23.1912 15.7385 23.1641 15.8833 23.1369L15.9195 23.2727V23.2817ZM16.2997 18.1675L16.3359 18.077C16.3359 18.077 16.5079 17.6244 16.4807 17.2895C16.4807 17.1356 16.5622 16.9817 16.698 16.9093C17.06 18.1313 17.5307 18.5748 18.3273 18.9731C18.2368 19.0636 18.1643 19.1541 18.1191 19.2084L18.0376 19.3171L18.0557 19.4438C18.1462 20.3128 17.9471 21.055 17.4583 21.5891C17.1777 21.8968 16.8066 22.1503 16.363 22.3041L15.7475 22.458C15.5665 22.4852 15.3764 22.5033 15.1863 22.5123H14.8604C13.8285 22.5123 13.2945 22.2317 12.7333 21.9421C12.4979 21.8244 12.2535 21.6886 11.9729 21.58C11.6742 21.4623 11.113 21.2451 10.5699 21.6524C10.1083 21.9873 10.0087 22.6119 10.3255 23.2365C10.3255 23.2365 10.3255 23.2636 10.3436 23.2727H9.83672L9.41129 22.5576C9.67379 22.2136 9.87293 21.6615 9.57422 21.1093C9.30267 20.6205 8.6962 20.358 8.01732 20.4666C7.16646 20.5934 6.83154 21.0459 6.71387 21.4442C6.69576 21.4804 6.68671 21.5257 6.67766 21.5619V21.6162C6.67766 21.8425 6.8587 22.0326 7.09404 22.0326C7.32939 22.0326 7.51042 21.8516 7.51042 21.6162C7.51042 21.5709 7.51042 21.5257 7.49232 21.4895C7.55568 21.5257 7.61904 21.5981 7.67335 21.752C7.74577 21.9511 7.70051 22.1684 7.56473 22.3494C7.39275 22.5757 7.10309 22.6934 6.80439 22.6662C6.54188 22.6481 6.32464 22.5485 6.16171 22.3585C5.96257 22.1322 5.87205 21.7972 5.89016 21.4171C5.97162 20.2765 7.01258 19.7063 7.60999 19.5615C9.19405 19.1632 10.2078 19.7515 10.2531 19.7696L11.0859 20.2765L10.751 19.3533C10.6333 19.0184 10.416 18.602 10.2441 18.2671C11.1764 18.2852 12.0816 18.2671 12.7785 18.2671C13.1316 18.2671 13.4303 18.2671 13.6747 18.2671C13.8285 18.2671 13.9553 18.3395 14.0096 18.4662C14.0911 18.6201 14.0911 18.8916 13.8648 19.1813C13.6566 19.4619 13.5751 19.833 13.6204 20.1951C13.6747 20.5572 13.8738 20.8649 14.1725 21.0822C14.8514 21.5709 15.9286 21.4714 16.4988 20.8559C17.0419 20.2765 16.9514 19.5705 16.6074 19.1089C16.4445 18.8916 16.1911 18.5839 16.01 18.3576L16.2816 18.2037L16.2997 18.1675ZM9.36603 5.56744L9.75526 5.63985L9.77336 5.24157C9.77336 5.24157 9.80052 4.617 9.86388 4.15536C9.9544 3.43122 10.5428 3.15967 10.8686 3.03294C11.113 3.21398 11.6471 3.68467 11.5385 4.43597L11.5204 4.5808C11.4841 4.80709 11.457 4.99718 11.3755 5.49502L11.3122 5.80278L12.516 6.14675C11.9186 7.19675 11.9277 8.50926 11.991 9.43254C12.0544 10.3377 12.326 11.1705 12.3441 11.1976L12.9958 10.9804C12.9958 10.9804 12.7333 10.1929 12.679 9.38728C12.6156 8.49116 12.6066 7.1877 13.2402 6.28253C13.8557 5.42261 14.6885 5.35925 15.2768 5.45882C15.4941 5.49502 15.8924 5.65795 16.1458 5.77563V6.12865L17.6665 7.6946C17.748 7.78512 17.7932 7.89374 17.7842 8.00236C17.7842 8.12003 17.7299 8.23771 17.6574 8.31012L17.6212 8.34633C17.2682 8.21055 16.7432 8.01141 16.4988 8.00236H16.4445L16.3902 8.02046C15.7294 8.2015 15.3764 7.87564 15.3673 7.85753L15.0324 7.50451L14.8152 7.94805C14.7337 8.10193 14.7247 8.1834 15.1048 8.91659C15.2044 9.11573 15.476 9.61357 15.7204 9.94849C15.8109 10.0662 15.9105 10.2019 16.0191 10.3287C16.535 10.9713 17.1777 11.7588 17.0238 12.664C16.9333 13.2343 16.6708 13.5692 16.3268 13.8951L15.9467 14.2481L16.4174 14.4653C16.526 14.5196 16.7161 14.5558 16.9514 14.583C16.7161 14.7188 16.4445 14.8726 16.1186 15.0627C15.8833 15.1895 14.8604 15.6149 14.3626 15.1442L7.60999 5.9114C8.40655 5.4045 9.34793 5.54933 9.35698 5.54933L9.36603 5.56744ZM7.72766 12.483H7.78198C8.35224 12.3563 8.91344 12.5644 8.91344 12.5644C9.19405 12.7636 9.52896 12.9175 9.86388 13.008L10.0449 12.3472C9.31172 12.1481 8.68715 11.5959 8.42465 10.917L8.32508 10.6636L8.05353 10.7088C7.97206 10.7088 7.8906 10.736 7.80913 10.7541C7.3837 10.8265 6.98542 10.8899 6.41516 10.7088C6.26128 10.6545 6.1255 10.6002 5.97162 10.5278C5.6186 10.3649 5.22938 10.1748 4.5867 10.1567C5.29274 8.51831 6.47852 7.16055 6.48757 7.14244L6.6324 6.97046L6.54188 6.76227C6.54188 6.76227 5.85395 5.30494 5.65481 4.89761C5.62766 4.85235 5.67291 4.70752 5.74533 4.54459L13.9553 15.7416C13.6656 15.8683 13.0954 16.0856 12.1811 16.2576C10.8686 16.511 8.72336 16.2938 8.70525 16.2938L8.48801 16.2666L8.37939 16.4567C8.37939 16.4567 7.82723 17.3709 7.03973 17.7964C6.20697 18.249 5.81774 18.3485 4.92162 18.5748C4.85826 18.5929 4.80395 18.611 4.73153 18.6201C4.76774 18.5024 4.79489 18.3938 4.82205 18.3214C5.43757 17.905 5.79964 17.4252 5.89921 16.8731C5.97162 16.511 5.91731 16.1218 5.863 15.7145C5.77248 14.9451 5.66386 14.1485 6.28843 13.3429C6.79533 12.7002 7.17551 12.6188 7.74577 12.5011L7.72766 12.483ZM2.31471 15.9045C2.58627 15.5968 2.95739 15.1623 3.28325 13.7864C3.45523 13.0713 3.90782 12.2205 5.02119 12.2205C5.51904 12.2205 5.83585 12.4196 6.00783 12.5826C5.91731 12.6731 5.81774 12.7907 5.72723 12.9084C5.65481 12.9989 5.6005 13.0804 5.54619 13.1709C4.84015 13.2343 4.07075 13.6416 3.71774 15.0627C3.44618 16.1308 2.99359 16.2938 2.51385 16.4658C2.40523 16.511 2.27851 16.5563 2.16988 16.6015C2.08842 16.6377 2.016 16.692 1.94359 16.7373C1.97075 16.5653 2.016 16.4024 2.09747 16.2123C2.16988 16.0946 2.23325 16.0132 2.33282 15.9045H2.31471Z" fill="#FF121F"/>
<path d="M0 21.3984C0 24.1772 1.65647 25.8337 4.43536 25.8337H7.69399C9.08796 25.8337 10.4276 26.4311 11.36 27.4811L11.6225 27.7617L11.885 27.4811C12.8173 26.4402 14.1569 25.8337 15.5509 25.8337H18.8096C21.6699 25.8337 23.2449 24.2587 23.2449 21.3984V0H0V21.3893V21.3984ZM0.687934 0.696985H22.557V21.3984C22.557 23.8514 21.2626 25.1458 18.8096 25.1458H15.5509C14.0845 25.1458 12.6725 25.7251 11.6225 26.7479C10.5815 25.7251 9.16038 25.1458 7.69399 25.1458H4.43536C2.05475 25.1458 0.687934 23.779 0.687934 21.3984V0.696985Z" fill="#FF121F"/>
</svg>
