<svg width="72" height="23" viewBox="0 0 72 23" fill="none" xmlns="http://www.w3.org/2000/svg">
<g clip-path="url(#clip0_26_40505)">
<path d="M53.8369 13.6998L60.4841 0H64.4487L71.0958 13.6998H67.8216L66.3224 10.5414H58.6102L57.1112 13.6998H53.8369ZM59.8331 7.99486H65.0997L62.4762 2.44781L59.8331 7.99486Z" fill="#FF121F"/>
<path d="M33.832 13.6998V0H38.7238L43.0039 10.9559L47.2842 0H52.1758V13.6998H49.2172V2.40833L44.72 13.6998H41.3274L36.8104 2.40833V13.6998H33.832Z" fill="#FF121F"/>
<path d="M15.8994 13.6998V0H18.9172V11.2126L26.393 0H30.9493V13.6998H27.9512V2.4873L20.4559 13.6998H15.8994Z" fill="#FF121F"/>
<path d="M8.83513 11.0941C9.91998 11.0941 10.5314 10.4032 10.5314 9.55437C10.5314 8.70553 9.91998 8.1133 8.83513 8.1133H1.02419V5.54705H8.57871C9.60438 5.54705 10.2356 4.87589 10.2356 4.02705C10.2356 3.17821 9.60438 2.60574 8.57871 2.60574H0.748047V0H8.71677C11.6952 0 13.3718 1.36209 13.3718 3.63223C13.3718 5.2312 12.2277 6.33667 11.0443 6.5933C12.2475 6.79071 13.6479 7.85669 13.6479 9.77151C13.6479 12.0811 11.9713 13.6998 8.97319 13.6998H0.748047V11.0941H8.83513Z" fill="#FF121F"/>
<path d="M66.0629 16.4239L68.023 18.8653L69.9747 16.4239H71.4982L69.1699 19.3537L71.5838 22.3691H70.026L68.0058 19.8505L65.9687 22.3691H64.4365L66.8418 19.3452L64.5135 16.4239H66.0629Z" fill="#FF121F"/>
<path d="M56.7627 22.3691L59.6474 16.4239H61.3679L64.2525 22.3691H62.8316L62.181 20.9985H58.8342L58.1836 22.3691H56.7627ZM59.365 19.8934H61.6504L60.5118 17.4861L59.365 19.8934Z" fill="#FF121F"/>
<path d="M51.4478 22.3691H50.1211V16.4239H51.4478V18.7541H52.4065L54.846 16.4239H56.4382L53.5278 19.2594L56.5665 22.3691H54.8631L52.4065 19.8934H51.4478V22.3691Z" fill="#FF121F"/>
<path d="M42.3389 22.3691V16.4239H43.6486V21.2897L46.8926 16.4239H48.8699V22.3691H47.5689V17.5033L44.3162 22.3691H42.3389Z" fill="#FF121F"/>
<path d="M39.7502 16.4239H41.0769V22.3691H39.7502V19.9363H35.9839V22.3691H34.6572V16.4239H35.9839V18.7968H39.7502V16.4239Z" fill="#FF121F"/>
<path d="M32.315 22.3691L30.329 19.8934H29.4474V22.3691H28.1377V19.8934H27.2305L25.2703 22.3691H23.6953L26.1091 19.2936L23.7466 16.4239H25.2788L27.2305 18.7541H28.1377V16.4239H29.4474V18.7541H30.3547L32.3063 16.4239H33.8385L31.4761 19.2936L33.8898 22.3691H32.315Z" fill="#FF121F"/>
<path d="M17.7626 22.3691V21.2383H18.8069C19.3718 21.2383 19.6373 21.0412 19.8939 20.5358L19.9368 20.4501H19.2092L16.5215 16.4239H17.9766L20.2621 19.8333L22.0511 16.4239H23.4549L21.1095 20.8956C20.6215 21.8379 20.1081 22.3691 19.0209 22.3691H17.7626Z" fill="#FF121F"/>
<path d="M9.32923 22.3691H9.11523V21.2297H9.20939C9.80002 21.2297 10.2023 20.8614 10.2023 19.2251V16.4239H15.8004V22.3691H14.4736V17.5632H11.4606V19.2594C11.4606 21.4268 10.7159 22.3691 9.32923 22.3691Z" fill="#FF121F"/>
<path d="M0 22.3691V16.4239H3.95459C5.24712 16.4239 5.9747 17.0321 5.9747 18.0001C5.9747 18.7112 5.47823 19.1737 4.99032 19.2851C5.49534 19.3709 6.12876 19.8333 6.12876 20.6558C6.12876 21.6666 5.39264 22.3691 4.10011 22.3691H0ZM3.89468 18.8225C4.33979 18.8225 4.61369 18.5313 4.61369 18.1629C4.61369 17.786 4.33979 17.5547 3.89468 17.5547H1.32676V18.8225H3.89468ZM1.32676 21.2297H4.01452C4.51097 21.2297 4.76776 20.9385 4.76776 20.5702C4.76776 20.1933 4.51097 19.9363 4.01452 19.9363H1.32676V21.2297Z" fill="#FF121F"/>
</g>
<defs>
<clipPath id="clip0_26_40505">
<rect width="71.6337" height="22.5421" fill="white"/>
</clipPath>
</defs>
</svg>
