<svg class="map__scheme" width="1522" height="836" viewBox="0 0 1522 836" fill="none" xmlns="http://www.w3.org/2000/svg">
  <g id="Group 37588">
    <g id="figure 3" class="figure figure_3">
      <rect id="Rectangle 378" x="476.117" y="343.448" width="67.7658" height="32.1047" fill="#0B5729" stroke="white" stroke-width="4.2342"/>
      <path id="3" d="M511.008 364.51H507.739C507.265 364.51 506.96 364.188 506.96 363.731V360.614H508.739V362.816H510.009V358.616H508.231V357.041L509.84 354.348H507.045V352.654H511.703V354.178L510.077 356.922H511.008C511.482 356.922 511.787 357.244 511.787 357.701V363.731C511.787 364.188 511.482 364.51 511.008 364.51Z" fill="white"/>
    </g>
    <g id="figure 1" class="figure figure_1">
      <rect id="Rectangle 378_2" x="614.874" y="438.353" width="87.2344" height="28.7865" fill="#0B5729" stroke="white" stroke-width="4.2342"/>
      <path id="1" d="M658.232 449.41V447.716H660.772V459.572H658.994V449.41H658.232Z" fill="white"/>
    </g>
    <g id="figure 2" class="figure figure_2">
      <rect id="Rectangle 378_3" x="348.117" y="473.117" width="99.7658" height="46.7658" rx="23.3829" fill="#0B5729" stroke="white" stroke-width="4.2342"/>
      <path id="2" d="M399.506 492.128V494.973L396.457 500.986V501.511H399.506V503.205H394.679V500.749L397.728 494.736V493.043H396.457V494.736H394.679V492.128C394.679 491.671 394.984 491.349 395.458 491.349H398.727C399.201 491.349 399.506 491.671 399.506 492.128Z" fill="white"/>
    </g>
  </g>
</svg>
