<svg width="38" height="38" viewBox="0 0 38 38" fill="none" xmlns="http://www.w3.org/2000/svg">
<g clip-path="url(#clip0_26_72771)">
<mask id="mask0_26_72771" style="mask-type:luminance" maskUnits="userSpaceOnUse" x="0" y="0" width="38" height="38">
<path d="M28.7879 0H9.21212C4.12441 0 0 4.12441 0 9.21212V28.7879C0 33.8756 4.12441 38 9.21212 38H28.7879C33.8756 38 38 33.8756 38 28.7879V9.21212C38 4.12441 33.8756 0 28.7879 0Z" fill="white"/>
</mask>
<g mask="url(#mask0_26_72771)">
<path d="M23.472 18.1325H12.2455V13.69H23.472C24.1278 13.69 24.5838 13.8043 24.8126 14.0039C25.0414 14.2035 25.1832 14.5737 25.1832 15.1145V16.7097C25.1832 17.2795 25.0414 17.6497 24.8126 17.8493C24.5838 18.0489 24.1278 18.1342 23.472 18.1342V18.1325ZM24.2422 9.5017H7.48438V28.5H12.2455V22.3191H21.0198L25.1832 28.5H30.5147L25.9243 22.2901C27.6167 22.0393 28.3766 21.5206 29.0033 20.6659C29.63 19.8112 29.9444 18.4447 29.9444 16.6209V15.1964C29.9444 14.1148 29.8298 13.2601 29.63 12.605C29.4302 11.9498 29.0888 11.38 28.6037 10.8682C28.0914 10.3837 27.5211 10.0425 26.8363 9.8139C26.1514 9.61432 25.2959 9.5 24.2422 9.5V9.5017Z" fill="#FF121F"/>
<path d="M57 7.62939e-06C57 10.4934 48.4935 19 38 19C35.8665 19 33.8154 18.6484 31.901 17.9999C31.9419 17.5484 31.96 17.0868 31.96 16.6209V15.1964C31.96 13.9869 31.8336 12.9207 31.5581 12.0171C31.2608 11.0427 30.7512 10.2041 30.0669 9.48215L30.0289 9.44208L29.9889 9.40413C29.26 8.71469 28.4336 8.22254 27.4748 7.90244L27.438 7.89015L27.4006 7.87927C26.488 7.61324 25.4343 7.48485 24.2427 7.48485H22.2276V7.48655H20.5318C19.5459 5.18921 19 2.65837 19 7.62939e-06C19 -10.4934 27.5066 -19 38 -19C48.4935 -19 57 -10.4934 57 7.62939e-06Z" fill="#FF121F"/>
</g>
<path d="M28.7881 0.288086H9.21233C4.28361 0.288086 0.288086 4.28361 0.288086 9.21233V28.7881C0.288086 33.7168 4.28361 37.7123 9.21233 37.7123H28.7881C33.7168 37.7123 37.7123 33.7168 37.7123 28.7881V9.21233C37.7123 4.28361 33.7168 0.288086 28.7881 0.288086Z" stroke="#FF121F" stroke-width="0.575758"/>
</g>
<defs>
<clipPath id="clip0_26_72771">
<rect width="38" height="38" fill="white"/>
</clipPath>
</defs>
</svg>
